<svg width="25" height="24" viewBox="0 0 25 24" fill="none" xmlns="http://www.w3.org/2000/svg">
<path d="M8.9285 9.7143C11.1475 9.7143 12.9464 7.91545 12.9464 5.69645C12.9464 3.47744 11.1475 1.67859 8.9285 1.67859C6.7095 1.67859 4.91064 3.47744 4.91064 5.69645C4.91064 7.91545 6.7095 9.7143 8.9285 9.7143Z" stroke="#3F4250" stroke-width="2" stroke-linecap="round" stroke-linejoin="round"/>
<path d="M16.9643 23.1072H0.892822V21.3215C0.892822 19.1903 1.73944 17.1464 3.24643 15.6394C4.75342 14.1324 6.79733 13.2858 8.92854 13.2858C11.0597 13.2858 13.1037 14.1324 14.6106 15.6394C16.1176 17.1464 16.9643 19.1903 16.9643 21.3215V23.1072Z" stroke="#3F4250" stroke-width="2" stroke-linecap="round" stroke-linejoin="round"/>
<path d="M16.0713 1.67859C17.1369 1.67859 18.1588 2.1019 18.9123 2.85539C19.6658 3.60889 20.0891 4.63084 20.0891 5.69645C20.0891 6.76205 19.6658 7.78401 18.9123 8.5375C18.1588 9.29099 17.1369 9.7143 16.0713 9.7143" stroke="#3F4250" stroke-width="2" stroke-linecap="round" stroke-linejoin="round"/>
<path d="M18.9285 13.625C20.4496 14.2037 21.7592 15.2306 22.6839 16.5698C23.6086 17.9091 24.1049 19.4975 24.107 21.125V23.1071H21.4285" stroke="#3F4250" stroke-width="2" stroke-linecap="round" stroke-linejoin="round"/>
</svg>
